<?xml version="1.0" encoding="utf-8"?>
<!-- Generator: Adobe Illustrator 28.0.0, SVG Export Plug-In . SVG Version: 6.00 Build 0)  -->
<svg version="1.1" id="Capa_1" xmlns="http://www.w3.org/2000/svg" xmlns:xlink="http://www.w3.org/1999/xlink" x="0px" y="0px"
	 viewBox="0 0 32 32" style="enable-background:new 0 0 32 32;" xml:space="preserve">
<style type="text/css">
	.st0{fill:#4A00FF;}
	.st1{fill:#FFFFFF;}
</style>
<g>
	<path class="st0" d="M30.21,27.28c-0.26,0.35-0.67,0.53-1.08,0.53c-0.28,0-0.56-0.08-0.8-0.26c-0.6-0.45-0.66-1.37-0.21-1.97l0,0
		c0.58-0.86,0.89-1.73,1.06-2.15c1.43-3.58,1.82-7.14,0.46-10.68C27.01,5.95,18.98,2.74,12.27,5.6c-6.9,2.94-9.94,10.88-6.8,17.7
		c3.06,6.62,11.1,9.43,17.72,6.13c0.46-0.23,0.89-0.45,1.28-0.61l0.03-0.02c0.59-0.39,1.4-0.32,1.85,0.22
		c0.52,0.63,0.37,1.55-0.3,1.98c0,0-1.03,0.82-1.08,0.92c3.37-1.14,5.26-2.83,6.64-5.81C31.49,26.17,30.21,27.28,30.21,27.28z
		 M23.34,18.81c-2.67,2.11-5.41,4.14-8.19,6.09c-1.98,1.39-3.47,0.66-3.71-1.7c-0.24-2.49-0.43-4.99-0.64-7.48
		c0.03-5.51,0.34-5.73,5.4-3.7c2.15,0.86,4.33,1.68,6.45,2.61C25.12,15.71,25.39,17.2,23.34,18.81z"/>
	<path class="st0" d="M8.6,31.61c-4.33,0.33-8.03-2.58-8.18-6.85C0.22,19.02,0.24,13.27,0.41,7.54C0.53,3.5,3.84,0.52,8.39,0.35
		c5.02-0.19,10.05-0.19,15.07-0.01c5.25,0.18,8,3.31,8.24,9.3c-3.66-5.14-8.22-8.17-14.46-8.15C12.7,1.5,8.87,3.16,5.71,6.37
		C0.28,11.89-2.18,23.08,8.6,31.61z"/>
	<path class="st1" d="M10.92,17.12c-0.09-1.14-0.13-2.29-0.07-3.44c0.17-3.48,1.02-3.39,5.36-1.65c2.15,0.86,4.33,1.67,6.45,2.6
		c2.46,1.08,2.73,2.57,0.69,4.19c-2.67,2.11-5.41,4.14-8.2,6.09c-1.98,1.39-3.48,0.66-3.71-1.7C11.25,21.18,11.08,19.15,10.92,17.12
		z M13.91,14.56l0.68,6.82c2.02-1.52,3.75-2.82,5.67-4.27L13.91,14.56z"/>
	<path class="st0" d="M13.91,14.56c2.33,0.93,4.2,1.68,6.35,2.55c-1.92,1.45-3.65,2.75-5.67,4.27
		C14.36,19.02,14.16,17.06,13.91,14.56z"/>
</g>
</svg>
